<svg width="96" height="96" xmlns="http://www.w3.org/2000/svg" xmlns:xlink="http://www.w3.org/1999/xlink" xml:space="preserve" overflow="hidden"><defs><clipPath id="clip0"><rect x="0" y="0" width="96" height="96"/></clipPath></defs><g clip-path="url(#clip0)"><path d="M32 55.686C36.2752 55.6877 39.7423 52.2232 39.744 47.948 39.7457 43.6728 36.2812 40.2057 32.006 40.204 27.7308 40.2023 24.2637 43.6668 24.262 47.942 24.262 47.943 24.262 47.944 24.262 47.945 24.2609 52.2191 27.7249 55.6849 31.999 55.686 31.9993 55.686 31.9997 55.686 32 55.686ZM32 42.205C35.1707 42.2033 37.7423 44.7723 37.744 47.943 37.7457 51.1137 35.1767 53.6853 32.006 53.687 28.8353 53.6887 26.2637 51.1197 26.262 47.949 26.262 47.9477 26.262 47.9463 26.262 47.945 26.2648 44.7768 28.8318 42.2089 32 42.205Z"/><path d="M46.134 61.825C43.8605 60.0709 41.2551 58.7959 38.475 58.077 36.3767 57.4338 34.1947 57.1046 32 57.1 29.8121 57.1358 27.6389 57.464 25.538 58.076 22.7876 58.8748 20.1954 60.1413 17.875 61.82 16.7135 62.7341 16.025 64.1222 16 65.6L16 73 48 73 48 65.6C47.9766 64.1253 47.2914 62.7392 46.134 61.825ZM46 71 18 71 18 65.6C18.019 64.744 18.4177 63.9408 19.088 63.408 21.2091 61.8877 23.5711 60.7355 26.075 60 28.0013 59.4381 29.9938 59.1355 32 59.1 34.0046 59.1065 35.9972 59.4098 37.913 60 40.4381 60.6461 42.8063 61.7965 44.875 63.382 45.5641 63.9149 45.9771 64.7292 46 65.6Z"/><path d="M56 47 80 47 80 49 56 49Z"/><path d="M56 55 80 55 80 57 56 57Z"/><path d="M56 63 80 63 80 65 56 65Z"/><path d="M56 71 80 71 80 73 56 73Z"/><path d="M84 26 55 26 55 18C55 15.7909 53.2091 14 51 14L45 14C42.7909 14 41 15.7909 41 18L41 26 12 26C9.79086 26 8 27.7909 8 30L8 78C8 80.2091 9.79086 82 12 82L84 82C86.2091 82 88 80.2091 88 78L88 30C88 27.7909 86.2091 26 84 26ZM43 18C43 16.8954 43.8954 16 45 16L51 16C52.1046 16 53 16.8954 53 18L53 29C53 30.1046 52.1046 31 51 31L45 31C43.8954 31 43 30.1046 43 29ZM86 78C86 79.1046 85.1046 80 84 80L12 80C10.8954 80 10 79.1046 10 78L10 30C10 28.8954 10.8954 28 12 28L41 28 41 29C41 31.2091 42.7909 33 45 33L51 33C53.2091 33 55 31.2091 55 29L55 28 84 28C85.1046 28 86 28.8954 86 30Z"/></g></svg>